<svg width="104" height="35" viewBox="0 0 104 35" fill="none" xmlns="http://www.w3.org/2000/svg">
<path d="M14.2949 21.6453C19.3328 21.6453 23.4167 17.5613 23.4167 12.5234C23.4167 7.48559 19.3328 3.40161 14.2949 3.40161C9.25708 3.40161 5.1731 7.48559 5.1731 12.5234C5.1731 17.5613 9.25708 21.6453 14.2949 21.6453Z" fill="url(#paint0_linear_279_2159)"/>
<path d="M11.7775 0C5.25457 0 0 5.66827 0 12.7047C0 12.9002 0 13.0956 0 13.3563V34.4657C4.83179 34.4657 8.75761 30.2308 8.75761 25.0186V24.9534V13.2911C8.75761 8.86074 12.0795 5.27735 16.1865 5.27735C19.9915 5.27735 22.9237 8.53588 23.4069 12.0541C22.9841 5.47371 17.9984 0 11.7775 0Z" fill="url(#paint1_linear_279_2159)"/>
<path d="M86.5647 27.0786V7.25269H89.9203V27.0786H86.5647Z" fill="#1C1C1C"/>
<path d="M95.8728 27.0786V9.86946H91.0702V7.25269H104V9.86946H99.2284V27.0786H95.8728Z" fill="#1C1C1C"/>
<path d="M34.5574 27.0716V7.40417H43.3222C44.8288 7.40417 46.0708 7.68921 47.048 8.25928C48.0253 8.82935 48.7481 9.61319 49.2163 10.6108C49.6846 11.5881 49.9187 12.7079 49.9187 13.9702C49.9187 15.9247 49.3079 17.4924 48.0864 18.6732C46.8851 19.8541 45.2564 20.4445 43.2 20.4445H37.8862V27.0716H34.5574ZM37.8862 17.8181H42.5893C43.9126 17.8181 44.9103 17.472 45.5821 16.7798C46.254 16.0876 46.5899 15.151 46.5899 13.9702C46.5899 12.7079 46.2642 11.7306 45.6127 11.0384C44.9815 10.3461 44.0246 10 42.742 10H37.8862V17.8181Z" fill="#1C1C1C"/>
<path d="M54.5501 27.0521C53.3693 27.0521 52.4734 26.7671 51.8626 26.197C51.2519 25.6066 50.9465 24.6395 50.9465 23.2958V7.25342H54.2753V22.9904C54.2753 23.5604 54.3771 23.9473 54.5807 24.1509C54.7843 24.3545 55.4968 24.4563 55.4968 24.4563L55.7717 26.9605C55.7717 26.9605 55.0184 27.0521 54.5501 27.0521Z" fill="#1C1C1C"/>
<path d="M61.4266 27.2132C60.5104 27.2132 59.6553 27.0504 58.8613 26.7246C58.0876 26.3989 57.4666 25.9102 56.9984 25.2587C56.5301 24.5869 56.296 23.7623 56.296 22.785C56.296 21.4006 56.7642 20.291 57.7008 19.4562C58.6577 18.6011 60.1236 18.1736 62.0985 18.1736H66.7405V17.5322C66.7405 16.84 66.6285 16.2903 66.4045 15.8831C66.2009 15.4759 65.8141 15.1807 65.244 14.9975C64.6943 14.8142 63.8799 14.7226 62.8009 14.7226C61.0907 14.7226 59.4924 14.9771 58.0062 15.4861V13.0124C58.6577 12.7477 59.4517 12.5339 60.3883 12.3711C61.3248 12.2082 62.3326 12.1267 63.4117 12.1267C65.5291 12.1267 67.1375 12.5543 68.2369 13.4094C69.3567 14.2645 69.9166 15.6591 69.9166 17.5933V26.9079H67.0764L66.8626 25.442C66.2722 26.012 65.5392 26.4498 64.6638 26.7552C63.8087 27.0606 62.7296 27.2132 61.4266 27.2132ZM62.3122 24.8312C63.3099 24.8312 64.1752 24.6683 64.9081 24.3425C65.6614 23.9964 66.2722 23.5383 66.7405 22.9683V20.4335H62.1595C61.1823 20.4335 60.4697 20.6269 60.0218 21.0137C59.5942 21.3802 59.3805 21.9503 59.3805 22.7239C59.3805 23.4773 59.635 24.0168 60.1439 24.3425C60.6529 24.6683 61.3757 24.8312 62.3122 24.8312Z" fill="#1C1C1C"/>
<path d="M71.3338 27.0716V12.5959H74.3878L74.5405 14.1229C75.192 13.6139 75.9656 13.1863 76.8615 12.8402C77.7777 12.4737 78.7855 12.2905 79.8849 12.2905C81.758 12.2905 83.1221 12.7282 83.9772 13.6037C84.8323 14.4792 85.2598 15.8432 85.2598 17.696V27.0716H81.9616V17.8487C81.9616 16.7289 81.7274 15.945 81.2592 15.4971C80.8112 15.0492 79.9561 14.8253 78.6938 14.8253C77.9405 14.8253 77.1974 14.978 76.4645 15.2834C75.7519 15.5888 75.1513 15.9858 74.6626 16.4744V27.0716H71.3338Z" fill="#1C1C1C"/>
<defs>
<linearGradient id="paint0_linear_279_2159" x1="5.17309" y1="0.539943" x2="15.2928" y2="24.4096" gradientUnits="userSpaceOnUse">
<stop offset="0.0198252" stop-color="#0549B3"/>
<stop offset="1" stop-color="#69EDDC"/>
</linearGradient>
<linearGradient id="paint1_linear_279_2159" x1="2.71239" y1="38.1711" x2="17.4201" y2="-7.69149" gradientUnits="userSpaceOnUse">
<stop stop-color="#0F58B7"/>
<stop offset="1" stop-color="#69ECDC"/>
</linearGradient>
</defs>
</svg>
