<svg width="13" height="13" viewBox="0 0 13 13" fill="none" xmlns="http://www.w3.org/2000/svg">
<path d="M6.5 0.49707C8.26605 0.49707 8.4864 0.50307 9.1793 0.53307C9.87155 0.56307 10.3428 0.66327 10.7575 0.81207C11.1865 0.96447 11.5479 1.17087 11.9093 1.50387C12.2398 1.80381 12.4956 2.16662 12.6587 2.56707C12.8193 2.94927 12.9285 3.38487 12.961 4.02387C12.9915 4.66347 13 4.86687 13 6.49707C13 8.12727 12.9935 8.33067 12.961 8.97027C12.9285 9.60927 12.8193 10.0443 12.6587 10.4271C12.4961 10.8278 12.2402 11.1906 11.9093 11.4903C11.5843 11.7953 11.1912 12.0314 10.7575 12.1821C10.3434 12.3303 9.87155 12.4311 9.1793 12.4611C8.4864 12.4893 8.26605 12.4971 6.5 12.4971C4.73395 12.4971 4.5136 12.4911 3.8207 12.4611C3.12845 12.4311 2.6572 12.3303 2.2425 12.1821C1.80851 12.0318 1.41539 11.7956 1.0907 11.4903C0.760116 11.1904 0.504355 10.8276 0.34125 10.4271C0.18005 10.0449 0.0715 9.60927 0.0389999 8.97027C0.00844994 8.33067 0 8.12727 0 6.49707C0 4.86687 0.00649996 4.66347 0.0389999 4.02387C0.0715 3.38427 0.18005 2.94987 0.34125 2.56707C0.503903 2.16638 0.75972 1.80346 1.0907 1.50387C1.41549 1.19861 1.80858 0.962508 2.2425 0.81207C2.6572 0.66327 3.1278 0.56307 3.8207 0.53307C4.5136 0.50487 4.73395 0.49707 6.5 0.49707ZM6.5 3.49707C5.63805 3.49707 4.8114 3.81314 4.20191 4.37575C3.59241 4.93836 3.25 5.70142 3.25 6.49707C3.25 7.29273 3.59241 8.05581 4.20191 8.61837C4.8114 9.18099 5.63805 9.49707 6.5 9.49707C7.36196 9.49707 8.18863 9.18099 8.79807 8.61837C9.40758 8.05581 9.75 7.29273 9.75 6.49707C9.75 5.70142 9.40758 4.93836 8.79807 4.37575C8.18863 3.81314 7.36196 3.49707 6.5 3.49707ZM10.725 3.34707C10.725 3.14816 10.6394 2.95739 10.487 2.81674C10.3347 2.67609 10.128 2.59707 9.9125 2.59707C9.69702 2.59707 9.49032 2.67609 9.33797 2.81674C9.18561 2.95739 9.1 3.14816 9.1 3.34707C9.1 3.54598 9.18561 3.73675 9.33797 3.8774C9.49032 4.01805 9.69702 4.09707 9.9125 4.09707C10.128 4.09707 10.3347 4.01805 10.487 3.8774C10.6394 3.73675 10.725 3.54598 10.725 3.34707ZM6.5 4.69707C7.01714 4.69707 7.51315 4.88671 7.87884 5.22428C8.24453 5.56184 8.45 6.01968 8.45 6.49707C8.45 6.97443 8.24453 7.43229 7.87884 7.76985C7.51315 8.10741 7.01714 8.29707 6.5 8.29707C5.98283 8.29707 5.48684 8.10741 5.12114 7.76985C4.75545 7.43229 4.55 6.97443 4.55 6.49707C4.55 6.01968 4.75545 5.56184 5.12114 5.22428C5.48684 4.88671 5.98283 4.69707 6.5 4.69707Z" fill="#7D7D7D" fill-opacity="0.5"/>
</svg>
