<svg width="12" height="13" viewBox="0 0 12 13" fill="none" xmlns="http://www.w3.org/2000/svg">
<path d="M10.2225 10.7234H8.44764V7.93833C8.44764 7.27425 8.43372 6.42076 7.5195 6.42076C6.594 6.42076 6.453 7.14111 6.453 7.88919V10.723H4.67588V4.99655H6.38286V5.77766H6.40578C6.64428 5.32654 7.22436 4.85218 8.08986 4.85218C9.89022 4.85218 10.2244 6.03752 10.2244 7.57875V10.723L10.2225 10.7234ZM2.66812 4.21396C2.53248 4.214 2.39815 4.18729 2.27285 4.13535C2.14754 4.08341 2.03371 4.00726 1.93788 3.91126C1.84205 3.81526 1.76611 3.70129 1.71439 3.57589C1.66267 3.4505 1.63621 3.31613 1.6365 3.18049C1.63672 2.97632 1.69748 2.77681 1.81109 2.60717C1.92469 2.43754 2.08605 2.3054 2.27476 2.22746C2.46346 2.14952 2.67104 2.12927 2.87125 2.1693C3.07145 2.20932 3.2553 2.3078 3.39953 2.4523C3.54377 2.59679 3.64193 2.78081 3.68159 2.98108C3.72124 3.18136 3.70063 3.3889 3.62234 3.57745C3.54406 3.76601 3.41162 3.92712 3.24177 4.04042C3.07192 4.15371 2.8723 4.2141 2.66812 4.21396ZM3.55837 10.7234H1.7775V4.99693H3.55837V10.7234ZM11.1135 0.49707H0.885C0.396375 0.49707 0 0.883683 0 1.36217V11.632C0 12.1104 0.396375 12.4971 0.885 12.4971H11.1116C11.5995 12.4971 12 12.1104 12 11.632V1.36217C12 0.883683 11.5995 0.49707 11.1116 0.49707H11.1135Z" fill="#7D7D7D" fill-opacity="0.5"/>
</svg>
