<svg width="14" height="13" viewBox="0 0 14 13" fill="none" xmlns="http://www.w3.org/2000/svg">
<path d="M14 1.92252C13.4852 2.15684 12.9249 2.32548 12.3478 2.39116C12.947 2.0156 13.3956 1.42228 13.6096 0.722522C13.0475 1.0754 12.4315 1.32284 11.7892 1.45388C11.5208 1.15109 11.1961 0.90987 10.8354 0.745256C10.4747 0.580643 10.0858 0.496162 9.69281 0.497078C8.10289 0.497078 6.82421 1.85684 6.82421 3.52548C6.82421 3.7598 6.85111 3.99412 6.89482 4.21956C4.51412 4.0882 2.39082 2.8882 0.979209 1.05092C0.721998 1.51444 0.587212 2.04221 0.588872 2.57932C0.588872 3.63021 1.0953 4.55684 1.86756 5.10181C1.41246 5.0829 0.968009 4.95092 0.570364 4.7166V4.75388C0.570364 6.22547 1.5563 7.44501 2.87033 7.72545C2.62361 7.79307 2.3698 7.82769 2.11489 7.82841C1.92813 7.82841 1.75147 7.80891 1.57313 7.78227C1.93655 8.98227 2.99483 9.85389 4.25502 9.88227C3.26908 10.6971 2.03413 11.1764 0.693189 11.1764C0.45259 11.1764 0.230501 11.1675 0 11.1391C1.27196 12 2.78115 12.4971 4.40644 12.4971C9.6827 12.4971 12.5699 7.88523 12.5699 3.88228C12.5699 3.75092 12.5699 3.61956 12.5615 3.4882C13.1201 3.05684 13.6096 2.52252 14 1.92252Z" fill="#7D7D7D" fill-opacity="0.5"/>
</svg>
