<svg width="104" height="34" viewBox="0 0 104 34" fill="none" xmlns="http://www.w3.org/2000/svg">
<path d="M86.6052 31.5822V11.8025H89.953V31.5822H86.6052Z" fill="white"/>
<path d="M95.8916 31.5822V14.4132H91.1002V11.8025H104V14.4132H99.2394V31.5822H95.8916Z" fill="white"/>
<path d="M34.7192 31.5757V11.9541H43.4636C44.9667 11.9541 46.2058 12.2385 47.1808 12.8072C48.1557 13.376 48.8768 14.158 49.344 15.1533C49.8112 16.1283 50.0448 17.2454 50.0448 18.5048C50.0448 20.4548 49.4354 22.0188 48.2167 23.1969C47.0183 24.375 45.3933 24.9641 43.3418 24.9641H38.0403V31.5757H34.7192ZM38.0403 22.3438H42.7324C44.0527 22.3438 45.048 21.9985 45.7183 21.3079C46.3886 20.6173 46.7237 19.6829 46.7237 18.5048C46.7237 17.2454 46.3987 16.2705 45.7488 15.5798C45.1191 14.8892 44.1644 14.5439 42.8847 14.5439H38.0403V22.3438Z" fill="white"/>
<path d="M54.6654 31.5562C53.4873 31.5562 52.5935 31.2719 51.9841 30.7031C51.3748 30.1141 51.0701 29.1492 51.0701 27.8086V11.8037H54.3911V27.504C54.3911 28.0727 54.4927 28.4586 54.6958 28.6617C54.8989 28.8649 55.6099 28.9664 55.6099 28.9664L55.8841 31.4648C55.8841 31.4648 55.1325 31.5562 54.6654 31.5562Z" fill="white"/>
<path d="M61.5258 31.717C60.6118 31.717 59.7587 31.5545 58.9665 31.2295C58.1946 30.9045 57.5751 30.417 57.1079 29.767C56.6407 29.0967 56.4071 28.2741 56.4071 27.2991C56.4071 25.9179 56.8743 24.8109 57.8087 23.9781C58.7634 23.1249 60.2258 22.6984 62.1961 22.6984H66.8273V22.0586C66.8273 21.3679 66.7156 20.8195 66.4921 20.4133C66.289 20.007 65.9031 19.7125 65.3343 19.5297C64.7859 19.3469 63.9734 19.2555 62.8969 19.2555C61.1907 19.2555 59.5962 19.5094 58.1134 20.0172V17.5493C58.7634 17.2852 59.5555 17.0719 60.4899 16.9094C61.4242 16.7469 62.4297 16.6657 63.5062 16.6657C65.6187 16.6657 67.2234 17.0922 68.3202 17.9453C69.4374 18.7984 69.996 20.1898 69.996 22.1195V31.4123H67.1624L66.9492 29.9498C66.3601 30.5186 65.6289 30.9553 64.7554 31.26C63.9023 31.5647 62.8258 31.717 61.5258 31.717ZM62.4094 29.3405C63.4047 29.3405 64.268 29.178 64.9992 28.853C65.7507 28.5077 66.3601 28.0506 66.8273 27.4819V24.953H62.257C61.2821 24.953 60.5711 25.146 60.1243 25.5319C59.6977 25.8976 59.4844 26.4663 59.4844 27.2382C59.4844 27.9897 59.7383 28.528 60.2461 28.853C60.7539 29.178 61.475 29.3405 62.4094 29.3405Z" fill="white"/>
<path d="M71.4099 31.5757V17.1337H74.4568L74.6091 18.6571C75.2591 18.1493 76.0309 17.7228 76.9247 17.3775C77.8387 17.0118 78.8442 16.829 79.941 16.829C81.8098 16.829 83.1707 17.2657 84.0238 18.1392C84.8769 19.0126 85.3035 20.3735 85.3035 22.2219V31.5757H82.0129V22.3743C82.0129 21.2571 81.7793 20.4751 81.3121 20.0282C80.8652 19.5813 80.0121 19.3579 78.7528 19.3579C78.0012 19.3579 77.2598 19.5102 76.5286 19.8149C75.8177 20.1196 75.2185 20.5157 74.731 21.0032V31.5757H71.4099Z" fill="white"/>
<path d="M14.2614 20.7456C19.2875 20.7456 23.362 16.8383 23.362 12.0183C23.362 7.19836 19.2875 3.29102 14.2614 3.29102C9.23535 3.29102 5.16089 7.19836 5.16089 12.0183C5.16089 16.8383 9.23535 20.7456 14.2614 20.7456Z" fill="url(#paint0_linear_247_2349)"/>
<path d="M11.75 0.0366211C5.24231 0.0366211 0 5.45972 0 12.1919C0 12.3789 0 12.5659 0 12.8152V33.0116C4.82052 33.0116 8.73719 28.9598 8.73719 23.9731V23.9107V12.7529C8.73719 8.51412 12.0513 5.08572 16.1487 5.08572C19.9449 5.08572 22.8703 8.20331 23.3523 11.5694C22.9305 5.27358 17.9564 0.0366211 11.75 0.0366211Z" fill="url(#paint1_linear_247_2349)"/>
<defs>
<linearGradient id="paint0_linear_247_2349" x1="17.4926" y1="21.5832" x2="5.85589" y2="5.85527" gradientUnits="userSpaceOnUse">
<stop stop-color="white"/>
<stop offset="1" stop-color="#8DB8FE"/>
</linearGradient>
<linearGradient id="paint1_linear_247_2349" x1="13.0396" y1="0.165035" x2="-6.01038" y2="32.3725" gradientUnits="userSpaceOnUse">
<stop stop-color="white"/>
<stop offset="1" stop-color="#8DB8FE"/>
</linearGradient>
</defs>
</svg>
